<svg xmlns="http://www.w3.org/2000/svg" viewBox="0 0 95.35 74.04"><g id="Calque_2" data-name="Calque 2"><g id="ëÎÓÈ_1" data-name="ëÎÓÈ 1"><path d="M92.7,32.32c-3.42-14.32-12-26.13-12-26.13A75.8,75.8,0,0,0,61.06,0a55.27,55.27,0,0,0-2.55,5.22A75.29,75.29,0,0,0,47.68,4.4a75.39,75.39,0,0,0-10.84.82A55.27,55.27,0,0,0,34.29,0,75.91,75.91,0,0,0,14.64,6.19S6.07,18,2.65,32.32A85.66,85.66,0,0,0,.39,61.55,75.48,75.48,0,0,0,24.52,74a49.55,49.55,0,0,0,5.22-8.51,51.11,51.11,0,0,1-8.13-4l2-1.59a55.13,55.13,0,0,0,48.13,0l2,1.59a51.56,51.56,0,0,1-8.13,4A49.55,49.55,0,0,0,70.84,74,75.5,75.5,0,0,0,95,61.55,85.66,85.66,0,0,0,92.7,32.32ZM31.84,50.5c-4.74,0-8.58-4.39-8.58-9.81s3.84-9.82,8.58-9.82,8.58,4.4,8.58,9.82S36.58,50.5,31.84,50.5Zm31.67,0c-4.74,0-8.58-4.39-8.58-9.81s3.84-9.82,8.58-9.82,8.58,4.4,8.58,9.82S68.25,50.5,63.51,50.5Z"/></g></g></svg>