<svg xmlns="http://www.w3.org/2000/svg" viewBox="0 0 89.19 89.19"><g id="Calque_2" data-name="Calque 2"><g id="ëÎÓÈ_1" data-name="ëÎÓÈ 1"><path d="M44.6,0A44.6,44.6,0,1,0,89.19,44.6,44.6,44.6,0,0,0,44.6,0ZM65.05,64.31a2.73,2.73,0,0,1-2.35,1.33,2.76,2.76,0,0,1-1.43-.4A44.84,44.84,0,0,0,38,59.05a66.48,66.48,0,0,0-15.69,1.87L21.9,61a2.75,2.75,0,1,1-1.19-5.37l.42-.09a73.15,73.15,0,0,1,16.93-2,50.13,50.13,0,0,1,26.07,7A2.75,2.75,0,0,1,65.05,64.31Zm5.53-12.13a3.51,3.51,0,0,1-4.81,1.27C48.06,43.13,30.24,45.73,21.19,48.2a3.52,3.52,0,1,1-1.86-6.79c10.12-2.76,30.05-5.66,50,6A3.53,3.53,0,0,1,70.58,52.18Zm2.57-12.09a4.22,4.22,0,0,1-2.07-.55C60.81,33.69,49,32.18,41,31.93c-9.29-.27-17.71,1-21.6,2.36a4.18,4.18,0,1,1-2.71-7.91c9.44-3.23,37.29-6.22,58.58,5.89a4.19,4.19,0,0,1-2.07,7.82Z"/></g></g></svg>