<svg xmlns="http://www.w3.org/2000/svg" viewBox="0 0 74.22 95.34"><g id="Calque_2" data-name="Calque 2"><g id="ëÎÓÈ_1" data-name="ëÎÓÈ 1"><path d="M13.56,57s-.21,1.45-2.07.41S0,49.8,0,34.75,10.77,0,38.39,0a36.8,36.8,0,0,1,26.1,10.06c7.7,7.17,9.73,16.56,9.73,23.94,0,17.74-10.86,35.64-30.06,35.64-6.66,0-12.32-3.91-13.48-6.89L27.27,76.24A53.65,53.65,0,0,1,17,95.34S14,83,16,74.56,23.11,45.1,23.11,45.1a26,26,0,0,1-1.92-8.93c0-4.46,2.73-13.89,10.6-13.89s7.26,7.82,7.26,8.25a15.14,15.14,0,0,1-.45,4,138.25,138.25,0,0,1-4.11,14.36c-2.61,7.57,4,11.56,8.41,11.56A15.42,15.42,0,0,0,55,54.3c3.21-4.12,6.24-10.29,6.24-20.55,0-8.93-3.72-14.67-8.31-18.52C46.79,10.13,38.53,10,36.76,10a28.57,28.57,0,0,0-15.5,4.56A25.63,25.63,0,0,0,10.57,35.24a23.37,23.37,0,0,0,4.67,13.9C16,50.25,13.56,57,13.56,57Z"/></g></g></svg>