<svg xmlns="http://www.w3.org/2000/svg" viewBox="0 0 81.93 80.77"><g id="Calque_2" data-name="Calque 2"><g id="ëÎÓÈ_1" data-name="ëÎÓÈ 1"><path d="M80.33,59.34c-12.61-7-15.08-13.68-15.55-15.59a.69.69,0,0,1,.35-.77c7.83-4.06,10-7.11,8.29-12.06s-9.77-1.26-9.77-1.26V19.82C63.65,8.87,53.5,0,41,0S18.28,8.87,18.28,19.82v9.84s-8-3.78-9.77,1.26S9,38.92,16.8,43a.69.69,0,0,1,.35.77c-.46,1.91-2.94,8.62-15.55,15.59a3.12,3.12,0,0,0-.15,5.36,24.48,24.48,0,0,0,7.85,3,2,2,0,0,1,1.58,1.67c.2,1.62,1,4,4.09,4,3.86,0,9.15-.17,15.05,4a17.78,17.78,0,0,0,11,3.35,17.79,17.79,0,0,0,11-3.35c5.9-4.19,11.18-4,15-4,3.08,0,3.89-2.39,4.1-4a1.94,1.94,0,0,1,1.57-1.67,24.39,24.39,0,0,0,7.85-3A3.12,3.12,0,0,0,80.33,59.34Z"/><path d="M15.85,71c3.85,0,9.48.16,15.53,4.46a15.7,15.7,0,0,0,9.37,2.92l.23,0,.2,0a15.76,15.76,0,0,0,9.37-2.92C56.84,71,62.67,71,66.53,71H67c.6,0,1.51,0,1.75-1.94a4.28,4.28,0,0,1,3.49-3.7,21.89,21.89,0,0,0,7-2.68.76.76,0,0,0,.35-.66.73.73,0,0,0-.39-.63h0c-13.07-7.24-16-14.37-16.69-17.1A3,3,0,0,1,64,40.88c8.14-4.22,8.12-6.38,7.15-9.19a1.23,1.23,0,0,0-.72-.83c-1.5-.63-4.62.38-5.81.94l-1.91.9a1,1,0,0,1-1.46-.92v-12c0-9.63-9.12-17.46-20.32-17.46S20.64,10.19,20.64,19.82v12a1,1,0,0,1-1.45.92l-1.92-.9c-1.59-.74-4.44-1.52-5.81-.94a1.23,1.23,0,0,0-.72.83c-1,2.81-1,5,7.15,9.19a3.05,3.05,0,0,1,1.56,3.43c-.67,2.73-3.62,9.87-16.7,17.1a.73.73,0,0,0-.39.63.75.75,0,0,0,.36.66,21.83,21.83,0,0,0,7,2.68,4.28,4.28,0,0,1,3.49,3.7C13.46,71,14.37,71,15,71h.88Z"/></g></g></svg>