<svg xmlns="http://www.w3.org/2000/svg" viewBox="0 0 68.7 82.81"><g id="Calque_2" data-name="Calque 2"><g id="ëÎÓÈ_1" data-name="ëÎÓÈ 1"><path d="M34.4,0S56-.67,63.29,13.52c3.72,7.23.41,10.7-1.36,12.19s-7.82,4.25-12-2.61C45.94,16.52,44.45,12,33.12,12s-14.86,5.62-14.86,9c0,2.86.31,7.2,17.33,10.86C54.73,35.94,68.7,40.67,68.7,57c0,13.43-10.58,25.78-34.3,25.78C7.42,82.81,0,66.53,0,59.29c0-4.52,3.57-7.47,8-7.47,5.53,0,7.37,4.63,9.4,9.14,1.34,3,4.63,9.57,16.61,9.57,10.17,0,17.11-5,17.11-11.52,0-8.1-8.8-10.16-18.1-12.27S1.61,41,1.61,22.53C1.61,7.11,17.09,0,34.4,0Z"/></g></g></svg>