<svg xmlns="http://www.w3.org/2000/svg" viewBox="0 0 96.48 96.48"><g id="Calque_2" data-name="Calque 2"><g id="ëÎÓÈ_1" data-name="ëÎÓÈ 1"><path d="M48.24,0A48.24,48.24,0,1,0,96.48,48.24,48.29,48.29,0,0,0,48.24,0ZM80.09,23a40.52,40.52,0,0,1,8.82,24.49,64.83,64.83,0,0,0-28-1.24c-1.14-2.69-2.29-5.18-3.42-7.48A63,63,0,0,0,80.09,23Zm-5.26-5.49A56.16,56.16,0,0,1,54,32l-.15-.26a217.55,217.55,0,0,0-14.9-23.1,40.59,40.59,0,0,1,35.89,8.84ZM30.54,11.62a202,202,0,0,1,15.19,23c-15.79,4-26.73,5.06-37.24,5A40.86,40.86,0,0,1,30.54,11.62Zm-23,36.62c0-.37,0-.74,0-1.1H9.47c13,0,24.92-1.71,39.73-5.61l.21,0q1.64,3.25,3.13,6.69l-1.15.35a61,61,0,0,0-25.6,16.4,70.59,70.59,0,0,0-8.11,10.12A40.52,40.52,0,0,1,7.56,48.24Zm15.72,32.1a63.86,63.86,0,0,1,8-10.18A53.46,53.46,0,0,1,53.67,55.75c.58-.19,1.16-.36,1.73-.52a170.35,170.35,0,0,1,8.36,30.61,40.61,40.61,0,0,1-40.48-5.5Zm48.31,1.19a175,175,0,0,0-7.77-28.09,56.68,56.68,0,0,1,24.5,1.74A40.74,40.74,0,0,1,71.59,81.53Z"/></g></g></svg>