<svg xmlns="http://www.w3.org/2000/svg" viewBox="0 0 77.21 77.19"><g id="Calque_2" data-name="Calque 2"><g id="ëÎÓÈ_1" data-name="ëÎÓÈ 1"><path d="M38.6,0C17.28,0,0,16.78,0,37.49A36.92,36.92,0,0,0,12,64.63a3.68,3.68,0,0,1,1.17,2.59l.22,7a3.11,3.11,0,0,0,4.36,2.75l7.5-3.28a3.68,3.68,0,0,1,2.51-.17A39.75,39.75,0,0,0,38.6,75c21.32,0,38.61-16.79,38.61-37.49S59.92,0,38.6,0ZM61.8,28.84l-11.33,18a5.76,5.76,0,0,1-8.32,1.54L33.08,41.6a2.37,2.37,0,0,0-2.84,0L18.15,50.84a1.85,1.85,0,0,1-2.68-2.46l11.28-18a5.83,5.83,0,0,1,8.43-1.56l9,6.73a2.37,2.37,0,0,0,2.84,0l12.09-9.2a1.85,1.85,0,0,1,2.69,2.46Z"/></g></g></svg>