<svg xmlns="http://www.w3.org/2000/svg" viewBox="0 0 96.87 96.87"><g id="Calque_2" data-name="Calque 2"><g id="ëÎÓÈ_1" data-name="ëÎÓÈ 1"><path d="M68.87,96.87H28a28,28,0,0,1-28-28V28A28,28,0,0,1,28,0H68.87a28,28,0,0,1,28,28V68.87A28,28,0,0,1,68.87,96.87ZM28,9.75A18.26,18.26,0,0,0,9.75,28V68.87A18.26,18.26,0,0,0,28,87.12H68.87A18.26,18.26,0,0,0,87.12,68.87V28A18.26,18.26,0,0,0,68.87,9.75Z"/><path d="M48.43,73A24.52,24.52,0,1,1,73,48.44,24.54,24.54,0,0,1,48.43,73Zm0-40.89A16.38,16.38,0,1,0,64.81,48.44,16.4,16.4,0,0,0,48.43,32.06Z"/><circle cx="73.43" cy="22.7" r="5.71"/></g></g></svg>