<svg xmlns="http://www.w3.org/2000/svg" viewBox="0 0 75.52 85.26"><g id="Calque_2" data-name="Calque 2"><g id="ëÎÓÈ_1" data-name="ëÎÓÈ 1"><path d="M41.88,3.55V59.4A11.74,11.74,0,1,1,30.14,47.66a12.3,12.3,0,0,1,2.19.2c.42.08.84.19,1.25.31V33.77a26.38,26.38,0,0,0-3.44-.23A25.88,25.88,0,0,0,6.31,69.47,25.86,25.86,0,0,0,20.07,83.22,25.86,25.86,0,0,0,56,59.4V3.55Z"/><path d="M75.52,37.19a33.41,33.41,0,0,1-13.1-2.65,33.69,33.69,0,0,1-17.9-17.9A33.49,33.49,0,0,1,41.88,3.55H56a19.4,19.4,0,0,0,5.71,13.8,19.41,19.41,0,0,0,13.81,5.72Z"/><path d="M20.72,66.42a11.28,11.28,0,0,0,1.12,1.28,11.74,11.74,0,0,0,20-8.3V3.55H52A19.06,19.06,0,0,1,51.72,0H37.6V55.85A11.77,11.77,0,0,1,20.72,66.42Z"/><path d="M61.71,17.35a19.34,19.34,0,0,0,9.53,5.25V19.53a19.42,19.42,0,0,1-10.18-2.86C61.27,16.9,61.49,17.13,61.71,17.35Z"/><path d="M6.31,69.47a25.85,25.85,0,0,1,23-35.91V30.22A26.37,26.37,0,0,0,25.86,30,25.85,25.85,0,0,0,7.57,74.14a25.38,25.38,0,0,0,4,3.29A25.67,25.67,0,0,1,6.31,69.47Z"/><path d="M48.42,77.69A25.84,25.84,0,0,0,56,59.4V31a32.79,32.79,0,0,0,6.42,3.59,33.41,33.41,0,0,0,13.1,2.65V23.07a19.63,19.63,0,0,1-4.28-.47v11A33.58,33.58,0,0,1,58.14,31a33.36,33.36,0,0,1-6.42-3.6V55.85A25.88,25.88,0,0,1,15.79,79.68a24.7,24.7,0,0,1-4.18-2.25l.24.26a25.87,25.87,0,0,0,36.57,0"/><path d="M57.44,13.81a19.81,19.81,0,0,0,3.62,2.86A19.39,19.39,0,0,1,56,3.55H52A19.36,19.36,0,0,0,57.44,13.81Z"/><path d="M29.3,44.63a10.86,10.86,0,0,0-1.25-.31,11.45,11.45,0,0,0-2.19-.21,11.75,11.75,0,0,0-8.3,20,11.87,11.87,0,0,0,3.16,2.26,11.75,11.75,0,0,1,9.42-18.76,12.3,12.3,0,0,1,2.19.2c.42.08.84.19,1.25.31V33.77a26.38,26.38,0,0,0-3.44-.23l-.84,0Z"/></g></g></svg>