<svg xmlns="http://www.w3.org/2000/svg" viewBox="0 0 94.07 83.95"><g id="Calque_2" data-name="Calque 2"><g id="ëÎÓÈ_1" data-name="ëÎÓÈ 1"><path d="M94.07,42.67a10.37,10.37,0,0,0-17.48-7.55c-7-5-16.53-8.2-27.17-8.63l4.5-21.76L69.09,8a7.36,7.36,0,1,0,.83-4L52.75.25a2.07,2.07,0,0,0-2.46,1.61L45.21,26.48c-10.86.32-20.63,3.57-27.73,8.64A10.37,10.37,0,1,0,6,52.07a20.3,20.3,0,0,0-.24,3.12C5.75,71.07,24.23,84,47,84S88.32,71.07,88.32,55.19a21.63,21.63,0,0,0-.24-3.12A10.37,10.37,0,0,0,94.07,42.67ZM23.39,50a7.38,7.38,0,1,1,7.38,7.38A7.38,7.38,0,0,1,23.39,50ZM64.47,69.71C60.78,73,54.18,75,46.8,75h-.06c-7.13,0-13.54-2-17.15-5.28a2.07,2.07,0,1,1,2.79-3c2.83,2.58,8.33,4.19,14.37,4.2h0c6.2,0,12.05-1.67,14.9-4.25a2.07,2.07,0,0,1,2.78,3.06ZM63.08,57.42a7.38,7.38,0,1,1,7.38-7.37A7.38,7.38,0,0,1,63.08,57.42Z"/></g></g></svg>