<svg xmlns="http://www.w3.org/2000/svg" viewBox="0 0 119.03 72.65"><g id="Calque_2" data-name="Calque 2"><g id="ëÎÓÈ_1" data-name="ëÎÓÈ 1"><path d="M47.58,33.15a18.21,18.21,0,0,0,7.36-6,16.22,16.22,0,0,0,2.51-9.4c0-7-2.68-11.21-6.33-13.8C45.2-.24,35.25,0,33.41,0H0V72.65H34.86c12.61,0,26-5.5,26-21.17S47.58,33.15,47.58,33.15ZM16,12.41H31.36c3.68,0,10.61.71,10.61,8.4,0,8-7,8.56-9.65,8.56H16Zm16.3,47.77H16V40.27H32.84c4.1,0,12.07.64,12.07,10.34S35.58,60.18,32.31,60.18Z"/><path d="M93.36,17.3c-14.88,0-26.82,10.58-26.82,28.21,0,10.78,6,27.14,27.06,27.14S118.06,55,118.06,55H105.29c-.43,2-4.09,6.81-11.47,6.81-13.17,0-12.64-11.6-12.78-13.29h37.89C120,34.57,112.7,17.3,93.36,17.3ZM81,39.34s.39-11.18,12-11.18c3.62,0,6.15,1,7.73,2.68,2.7,2.91,3.4,6.5,3.81,8.5Z"/><rect x="78.49" y="3.62" width="29.39" height="8.17"/></g></g></svg>