<svg xmlns="http://www.w3.org/2000/svg" viewBox="0 0 72.31 72.31"><g id="Calque_2" data-name="Calque 2"><g id="ëÎÓÈ_1" data-name="ëÎÓÈ 1"><path d="M68.48,27.23H63.22a3.82,3.82,0,0,1-3.83-3.83V22.28A22.29,22.29,0,0,0,37.11,0H22.28A22.29,22.29,0,0,0,0,22.28V50A22.29,22.29,0,0,0,22.28,72.31H50A22.29,22.29,0,0,0,72.31,50v-19A3.82,3.82,0,0,0,68.48,27.23ZM18.91,23.16A4.17,4.17,0,0,1,23.09,19h13.2a4.17,4.17,0,0,1,4.17,4.17h0a4.18,4.18,0,0,1-4.17,4.18H23.09a4.18,4.18,0,0,1-4.18-4.18ZM53.28,49.29a4.18,4.18,0,0,1-4.17,4.18h-26a4.18,4.18,0,0,1-4.18-4.18h0a4.18,4.18,0,0,1,4.18-4.17h26a4.17,4.17,0,0,1,4.17,4.17Z"/></g></g></svg>