<svg xmlns="http://www.w3.org/2000/svg" viewBox="0 0 84.88 84.88"><g id="Calque_2" data-name="Calque 2"><g id="ëÎÓÈ_1" data-name="ëÎÓÈ 1"><path d="M60.45,60.45a25.47,25.47,0,0,1-36,0h0l-12,12h0a42.43,42.43,0,0,0,60,0Z"/><path d="M17,42.44a25.31,25.31,0,0,1,7.46-18l-12-12a42.43,42.43,0,0,0,0,60l12-12A25.31,25.31,0,0,1,17,42.44Z"/><path d="M24.43,24.43a25.47,25.47,0,0,1,36,0l12-12a42.41,42.41,0,0,0-60,0h0l12,12Z"/><path d="M84,34H42.44V50.9h24a25.44,25.44,0,0,1-6,9.55l12,12A42.46,42.46,0,0,0,84,34Z"/></g></g></svg>